<svg width="48" height="48" viewBox="0 0 48 48" fill="none" xmlns="http://www.w3.org/2000/svg">
<g clip-path="url(#clip0_932_99432)">
<path d="M24 48C37.2548 48 48 37.2548 48 24C48 10.7452 37.2548 0 24 0C10.7452 0 0 10.7452 0 24C0 37.2548 10.7452 48 24 48Z" fill="url(#paint0_linear_932_99432)"/>
<path fill-rule="evenodd" clip-rule="evenodd" d="M10.8621 23.744C17.8586 20.6957 22.524 18.6861 24.8583 17.7152C31.5234 14.9429 32.9083 14.4614 33.811 14.4455C34.0096 14.442 34.4535 14.4912 34.741 14.7245C34.9838 14.9215 35.0506 15.1877 35.0826 15.3745C35.1146 15.5613 35.1544 15.9868 35.1227 16.3193C34.7615 20.1142 33.1987 29.3236 32.4036 33.574C32.0672 35.3725 31.4048 35.9756 30.7635 36.0346C29.3697 36.1628 28.3114 35.1135 26.9615 34.2286C24.8492 32.844 23.6559 31.9821 21.6055 30.6309C19.236 29.0694 20.772 28.2112 22.1224 26.8086C22.4759 26.4415 28.6166 20.856 28.7355 20.3493C28.7504 20.286 28.7642 20.0497 28.6238 19.925C28.4835 19.8003 28.2764 19.8429 28.1269 19.8769C27.9151 19.9249 24.5406 22.1553 18.0036 26.568C17.0457 27.2257 16.1782 27.5462 15.4009 27.5294C14.5439 27.5109 12.8956 27.0449 11.6702 26.6465C10.1672 26.158 8.97261 25.8997 9.07663 25.0699C9.13081 24.6377 9.72596 24.1958 10.8621 23.744Z" fill="white"/>
</g>
<defs>
<linearGradient id="paint0_linear_932_99432" x1="24" y1="0" x2="24" y2="47.644" gradientUnits="userSpaceOnUse">
<stop stop-color="#2AABEE"/>
<stop offset="1" stop-color="#229ED9"/>
</linearGradient>
<clipPath id="clip0_932_99432">
<rect width="48" height="48" fill="white"/>
</clipPath>
</defs>
</svg>
